# xmcd
#
# Track frame offsets:
#	182
#	21190
#	45217
#	67850
#	89587
#	112457
#	134447
#	158590
#	179087
#	200027
#	220262
#
# Disc length: 3230 seconds
#
# Revision: 6
# Processed by: cddbd v1.5.1PL0 Copyright (c) Steve Scherf et al.
# Submitted via: EasyCDDAExtractor 7.5.0.1
#
DISCID=a10c9c0b
DTITLE=The Family Stand - Chain
DYEAR=1990
DGENRE=R&B
TTITLE0=Ghetto Heaven
TTITLE1=Twisted
TTITLE2=Only
TTITLE3=In Summer I Fall
TTITLE4=Ovasaxed
TTITLE5=Sweet Liberation
TTITLE6=The Last Temptation
TTITLE7=Chain
TTITLE8=Avenue Lust
TTITLE9=Little White, Little Black Lies
TTITLE10=Ghetto Heaven (remix)
EXTD=
EXTT0=
EXTT1=
EXTT2=
EXTT3=
EXTT4=
EXTT5=
EXTT6=
EXTT7=
EXTT8=
EXTT9=
EXTT10=
PLAYORDER=
